<?xml version="1.0" standalone="no"?>
<!DOCTYPE svg PUBLIC "-//W3C//DTD SVG 20010904//EN"
 "http://www.w3.org/TR/2001/REC-SVG-20010904/DTD/svg10.dtd">
<svg version="1.0" xmlns="http://www.w3.org/2000/svg"
 width="16.000000pt" height="16.000000pt" viewBox="0 0 16.000000 16.000000"
 preserveAspectRatio="xMidYMid meet">
<metadata>
Created by potrace 1.11, written by Peter Selinger 2001-2013
</metadata>
<g transform="translate(0.000000,16.000000) scale(0.002477,-0.002477)"
fill="#000000" stroke="none">
<path d="M2755 4410 c-52 -11 -156 -53 -210 -84 -47 -28 -148 -134 -195 -205
-33 -49 -55 -114 -70 -207 -6 -35 -10 -418 -10 -931 l0 -873 160 0 159 0 3
748 c3 585 6 756 17 787 17 51 97 129 164 161 40 18 69 24 122 24 121 -1 202
-51 261 -163 l39 -72 3 -742 3 -743 64 0 65 0 0 745 0 744 24 54 c45 102 162
177 278 177 119 0 211 -59 269 -172 l29 -57 0 -746 0 -745 160 0 160 0 0 873
c0 556 -4 895 -11 936 -21 133 -75 237 -171 332 -66 66 -128 104 -221 136 -70
24 -98 28 -187 28 -97 0 -110 -2 -170 -31 -84 -40 -169 -118 -200 -183 l-23
-51 -27 48 c-30 51 -102 123 -167 166 -75 50 -207 69 -318 46z"/>
<path d="M220 3100 l0 -991 668 4 c704 3 692 3 803 50 66 27 176 116 227 182
32 42 62 97 83 153 29 78 32 98 33 197 1 108 0 111 -37 183 -46 89 -94 144
-169 192 l-56 37 34 12 c59 21 138 104 185 193 l44 83 -1 110 c-1 99 -4 119
-33 197 -41 109 -110 201 -201 267 -88 65 -112 76 -207 100 -78 20 -107 21
-727 21 l-646 0 0 -990z m1042 650 c33 -12 70 -37 95 -62 155 -159 112 -400
-87 -492 l-55 -26 -432 0 -433 0 0 300 0 300 430 0 c404 0 432 -1 482 -20z m0
-740 c64 -24 125 -83 162 -157 70 -140 1 -324 -148 -394 l-61 -29 -432 0 -433
0 0 300 0 300 430 0 c404 0 432 -1 482 -20z"/>
<path d="M4973 4079 c-144 -24 -281 -109 -364 -226 -69 -96 -78 -114 -95 -178
-39 -144 -23 -317 37 -409 39 -58 120 -132 164 -147 l33 -12 -56 -37 c-107
-70 -163 -148 -188 -257 -18 -84 -15 -198 10 -288 17 -64 26 -82 95 -178 83
-117 199 -189 355 -222 63 -13 176 -15 706 -15 l630 0 0 160 0 160 -497 0
-498 0 -52 24 c-71 33 -126 92 -152 161 -35 93 -36 130 -7 215 29 86 76 136
161 176 l50 24 498 0 497 0 0 70 0 70 -497 0 -498 0 -50 24 c-84 39 -132 91
-160 173 -31 90 -31 103 0 202 21 66 33 86 68 117 23 20 65 47 92 60 l50 24
498 0 497 0 0 160 0 160 -637 -1 c-351 -1 -661 -5 -690 -10z"/>
</g>
</svg>
